<?xml version="1.0" encoding="UTF-8"?>
<!DOCTYPE svg PUBLIC "-//W3C//DTD SVG 1.1//EN" "http://www.w3.org/Graphics/SVG/1.1/DTD/svg11.dtd">
<svg version="1.2" width="100mm" height="100mm" viewBox="0 0 10000 10000" preserveAspectRatio="xMidYMid" fill-rule="evenodd" stroke-width="32" stroke-linejoin="round" xmlns="http://www.w3.org/2000/svg">

  <defs class="ClipPathGroup">
    <clipPath id="the_clip_path" clipPathUnits="userSpaceOnUse">
      <rect x="0" y="0" width="10000" height="10000"/>
    </clipPath>
  </defs>

  <g id="cqterm" clip-path="url(#the_clip_path)">

    <g id="background">
      <rect class="BoundingBox" stroke="none" fill="none" x="0" y="0" width="10000" height="10000"/>
      <path fill="rgb(80,80,80)" stroke="none" d="M 0,0 L 10000,0 10000,10000 0,10000 0,0 Z"/>
    </g>

    <g id="frame">
      <rect class="BoundingBox" stroke="none" fill="none" x="1000" y="1000" width="8000" height="8000"/>
      <path fill="none" stroke="rgb(0,0,0)" stroke-width="5" d="M 1000,1000 L 9000,1000 9000,9000 1000,9000 1000,1000 Z"/>
      <path fill="none" stroke="rgb(0,0,0)" stroke-width="5" d="M 1000,1500 L 9000,1500 Z"/>
      <path fill="rgb(90,20,160)" stroke="none" d="M 1000,1000 L 9000,1000 9000,1500 1000,1500 1000,1000 Z"/>
    </g>

    <g id="tabs">
      <rect class="BoundingBox" stroke="none" fill="none" x="1000" y="1000" width="1000" height="8000"/>
      <path fill="none" stroke="rgb(0,0,0)" d="M 2000,1500 L 2000,9000 Z"/>

      <path fill="rgb(166,208,255)" stroke="none" d="M 1000,1500 L 3000,1500 3000,5500 1000,5500 1000,1500 Z"/>
      <path fill="rgb(200,200,200)" stroke="none" d="M 1000,5500 L 3000,5500 3000,9000 1000,9000 1000,5500 Z"/>

      <path fill="rgb(255,208,255)" stroke="none" d="M 1000,2500 L 3000,2500 3000,3500 1000,3500 1000,2500 Z"/>

      <path fill="rgb(0,0,0)" stroke="none" d="M 1200,1900 L 2400,1900 2400,2100 1200,2100 1200,1900 Z"/>
      <path fill="rgb(0,0,0)" stroke="none" d="M 1200,2900 L 2400,2900 2400,3100 1200,3100 1200,2900 Z"/>
      <path fill="rgb(0,0,0)" stroke="none" d="M 1200,3900 L 2400,3900 2400,4100 1200,4100 1200,3900 Z"/>
      <path fill="rgb(0,0,0)" stroke="none" d="M 1200,4900 L 2400,4900 2400,5100 1200,5100 1200,4900 Z"/>
    </g>

    <g id="terminal">
      <rect class="BoundingBox" stroke="none" fill="none" x="3000" y="1500" width="6000" height="6000"/>
      <path fill="rgb(0,0,189)" stroke="none" d="M 3000,1500 L 9000,1500 9000,9000 3000,9000 3000,1500 Z"/>
    </g>

    <g id="angle-bracket">
      <rect class="BoundingBox" stroke="none" fill="none" x="3000" y="1500" width="6000" height="6000"/>
      <path fill="none" stroke="rgb(255,255,255)" stroke-width="212" stroke-linejoin="round" d="M 3400,2000 L 4400,3000 3400,4000"/>
    </g>

    <g id="yellow-cursor">
      <rect class="BoundingBox" stroke="none" fill="none" x="3000" y="1500" width="6000" height="6000"/>
      <path fill="none" stroke="rgb(255,255,0)" stroke-width="212" stroke-linejoin="round" d="M 5000,4200 L 6500,4200"/>
    </g>

  </g>

</svg>
